<mxfile host="app.diagrams.net" modified="2023-06-13T08:11:56.515Z" agent="Mozilla/5.0 (Windows NT 10.0; Win64; x64; rv:109.0) Gecko/20100101 Firefox/110.0" version="21.3.7" etag="9LigVGmxdOtAua7e7vEp" type="github">
  <diagram name="Page-1" id="W_9SXH4TD8g1rCxy0FTM">
    <mxGraphModel>
      <root>
        <mxCell id="0" />
        <mxCell id="1" parent="0" />
      </root>
    </mxGraphModel>
  </diagram>
</mxfile>
